<svg width="337" height="112" viewBox="0 0 337 112" fill="none" xmlns="http://www.w3.org/2000/svg">
<path d="M23.3179 46.6137C21.5147 46.6137 19.7114 45.9256 18.3308 44.5633C15.5837 41.8249 15.5837 37.3731 18.3308 34.6346L51.0142 2.05385C53.7613 -0.684618 58.2271 -0.684618 60.9742 2.05385C63.7213 4.79232 63.7213 9.24409 60.9742 11.9826L28.2908 44.5633C26.9243 45.9256 25.1211 46.6137 23.3179 46.6137Z" fill="black"/>
<path d="M58.1365 37.3785C55.3894 34.6401 55.3894 30.1883 58.1365 27.4498L67.4766 18.139C70.2519 15.3725 74.7881 15.4006 77.5352 18.2373C80.226 21.0179 80.0288 25.4978 77.2817 28.2363L68.1106 37.3785C65.3494 40.117 60.8836 40.117 58.1365 37.3785Z" fill="black"/>
<path d="M23.1069 79.3197C21.3037 79.3197 19.5005 78.6316 18.1199 77.2694C15.3728 74.5309 15.3728 70.0791 18.1199 67.3407L41.8576 43.6774C44.6047 40.939 49.0705 40.939 51.8176 43.6774C54.5647 46.4159 54.5647 50.8677 51.8176 53.6062L28.0799 77.2694C26.7134 78.6316 24.9101 79.3197 23.1069 79.3197Z" fill="black"/>
<path d="M39.3404 95.4318C37.5372 95.4318 35.7339 94.7437 34.3533 93.3815C31.6062 90.643 31.6062 86.1912 34.3533 83.4528L44.4401 73.3977C47.1872 70.6592 51.6529 70.6592 54.4 73.3977C57.1471 76.1361 57.1471 80.5879 54.4 83.3264L44.3133 93.3815C42.9468 94.7437 41.1436 95.4318 39.3404 95.4318Z" fill="black"/>
<path d="M65.7221 69.1537C63.9189 69.1537 62.1157 68.4656 60.7351 67.1034C57.988 64.3649 57.988 59.9132 60.7351 57.1747L83.7262 34.2558C86.4733 31.5173 90.939 31.5173 93.6861 34.2558C96.4332 36.9943 96.4332 41.446 93.6861 44.1845L70.6951 67.1034C69.3145 68.4656 67.5253 69.1537 65.7221 69.1537Z" fill="black"/>
<path d="M7.02982 62.8042C10.9122 62.8042 14.0595 59.6668 14.0595 55.7965C14.0595 51.9263 10.9122 48.7888 7.02982 48.7888C3.1474 48.7888 -3.40004e-09 51.9263 -7.59418e-09 55.7965C-1.17883e-08 59.6668 3.1474 62.8042 7.02982 62.8042Z" fill="black"/>
<path d="M55.4741 112C53.6709 112 51.8677 111.312 50.4871 109.95C47.74 107.211 47.74 102.759 50.4871 100.021L83.748 66.8642C86.4951 64.1258 90.9609 64.1258 93.708 66.8642C96.4551 69.6027 96.4551 74.0545 93.708 76.793L60.433 109.95C59.0805 111.312 57.2773 112 55.4741 112Z" fill="black"/>
<path d="M104.967 62.6629C108.85 62.6629 111.997 59.5255 111.997 55.6553C111.997 51.785 108.85 48.6476 104.967 48.6476C101.085 48.6476 97.9375 51.785 97.9375 55.6553C97.9375 59.5255 101.085 62.6629 104.967 62.6629Z" fill="black"/>
<path d="M145.985 73.4481C142.719 71.6218 140.243 69.107 138.544 65.8587C136.845 62.6253 136.01 58.9129 136.01 54.7215C136.01 50.4403 136.874 46.713 138.617 43.5245C140.36 40.3511 142.865 37.8961 146.146 36.1896C149.413 34.4831 153.295 33.6149 157.777 33.6149C162.23 33.6149 166.098 34.4831 169.35 36.2046C172.601 37.941 175.106 40.396 176.85 43.5695C178.593 46.7429 179.457 50.4553 179.457 54.7066C179.457 58.9728 178.563 62.7301 176.762 65.9784C174.96 69.2267 172.426 71.7416 169.13 73.5079C165.849 75.2743 162.04 76.1575 157.719 76.1575C153.148 76.1725 149.237 75.2743 145.985 73.4481ZM162.831 64.5414C164.237 63.5983 165.307 62.266 166.024 60.5745C166.742 58.883 167.108 56.937 167.108 54.7215C167.108 52.566 166.727 50.6649 165.951 49.0332C165.175 47.3866 164.091 46.1142 162.684 45.2161C161.278 44.3179 159.652 43.8688 157.792 43.8688C155.902 43.8688 154.232 44.3179 152.811 45.2161C151.391 46.1142 150.292 47.3866 149.53 49.0183C148.768 50.6499 148.388 52.551 148.388 54.7215C148.388 56.937 148.768 58.883 149.53 60.5895C150.292 62.296 151.391 63.6133 152.797 64.5563C154.218 65.4994 155.858 65.9634 157.733 65.9634C159.725 65.9634 161.425 65.4994 162.831 64.5414Z" fill="black"/>
<path d="M184.806 42.8333L193.551 42.8333C194.122 42.8333 194.62 43.2525 194.723 43.8213L197.125 56.9493C197.506 59.06 197.916 61.7395 198.355 64.9578C198.604 62.458 199.015 59.8084 199.586 57.0092L202.208 43.8063C202.325 43.2375 202.809 42.8333 203.38 42.8333L213.824 42.8333C214.395 42.8333 214.893 43.2525 214.996 43.8213L217.457 57.0092C217.94 59.4791 218.351 62.1287 218.687 64.9578C218.98 62.7873 219.42 60.1378 220.035 57.0092L222.628 43.8063C222.745 43.2375 223.228 42.8333 223.8 42.8333L231.534 42.8333C232.296 42.8333 232.867 43.5668 232.691 44.3302L225.675 74.6429C225.543 75.1968 225.074 75.586 224.517 75.586L213.311 75.586C212.74 75.586 212.257 75.1818 212.14 74.598L209.459 60.6766C209.063 58.7157 208.683 56.605 208.346 54.3147C208.17 55.8416 207.818 57.9672 207.276 60.6766L204.537 74.613C204.42 75.1818 203.936 75.586 203.365 75.586L192.042 75.586C191.5 75.586 191.017 75.1968 190.885 74.6579L183.634 44.3452C183.473 43.5818 184.044 42.8333 184.806 42.8333Z" fill="black"/>
<path d="M238.55 50.187C238.55 48.8248 238.521 47.4626 238.448 46.1304C238.404 45.3969 238.374 44.7382 238.331 44.1544C238.272 43.4509 238.814 42.8371 239.517 42.8371L247.955 42.8371C248.555 42.8371 249.053 43.2712 249.141 43.885C249.2 44.364 249.258 44.9178 249.331 45.5615C249.449 46.7441 249.507 47.6273 249.507 48.1811L249.624 48.1811C250.738 46.1304 252.129 44.6185 253.799 43.6604C255.469 42.7024 257.491 42.2234 259.849 42.2234C263.482 42.2234 266.148 43.3161 267.818 45.5017C269.488 47.6872 270.337 50.681 270.337 54.4982L270.337 74.3773C270.337 75.0509 269.81 75.5898 269.151 75.5898L260.362 75.5898C259.702 75.5898 259.175 75.0509 259.175 74.3773L259.175 57.7465C259.175 55.8304 258.853 54.3634 258.194 53.3605C257.549 52.3576 256.451 51.8486 254.927 51.8486C253.243 51.8486 251.954 52.4324 251.075 53.585C250.196 54.7377 249.756 56.3843 249.756 58.5099L249.756 74.3773C249.756 75.0509 249.229 75.5898 248.57 75.5898L239.781 75.5898C239.122 75.5898 238.594 75.0509 238.594 74.3773L238.594 50.187L238.55 50.187Z" fill="black"/>
<path d="M279.076 34.2476L288.437 34.2476C289.096 34.2476 289.623 34.7864 289.623 35.4601L289.623 74.3801C289.623 75.0537 289.096 75.5926 288.437 75.5926L279.076 75.5926C278.417 75.5926 277.89 75.0537 277.89 74.3801L277.89 35.4601C277.89 34.7864 278.432 34.2476 279.076 34.2476Z" fill="black"/>
<path d="M298.05 35.4601C298.05 34.7864 298.577 34.2476 299.236 34.2476L314.851 34.2476C321.971 34.2476 327.405 35.9241 331.17 39.2623C334.92 42.6004 336.795 47.7199 336.795 54.6057C336.795 59.0516 335.916 62.8388 334.143 65.9973C332.371 69.1409 329.881 71.5359 326.643 73.1526C323.421 74.7693 319.671 75.5926 315.393 75.5926L299.236 75.5926C298.577 75.5926 298.05 75.0537 298.05 74.3801L298.05 35.4601V35.4601ZM314.851 65.6231C318.089 65.6231 320.535 64.695 322.22 62.8388C323.89 60.9826 324.739 58.2882 324.739 54.7405C324.739 51.3574 323.904 48.7528 322.249 46.9415C320.594 45.1302 318.074 44.232 314.676 44.232L309.798 44.232L309.798 65.6231L314.851 65.6231V65.6231Z" fill="black"/>
</svg>
