<svg width="35" height="18" viewBox="0 0 35 18" fill="none" xmlns="http://www.w3.org/2000/svg">
<path fill-rule="evenodd" clip-rule="evenodd" d="M0 17.3144H17.6877L35 0H0V17.3144Z" fill="url(#paint0_linear_1108_2278)"/>
<path fill-rule="evenodd" clip-rule="evenodd" d="M20.7707 3.25487H17.326V11.4459L14.3158 3.25487H11.332L8.76163 10.1032C8.48951 8.37767 6.7028 7.78281 5.29685 7.33244C4.36659 7.03501 3.38464 6.59413 3.39307 6.11107C3.3994 5.71449 3.92044 5.34428 4.95196 5.40018C5.64491 5.43815 6.25771 5.493 7.4717 6.08048L8.67197 3.99529C7.45348 3.40811 6.12191 3.09285 4.76949 3.07135H4.76105C3.29498 3.07135 2.07256 3.54809 1.31632 4.33069C0.792194 4.86877 0.496624 5.5888 0.491525 6.33994C0.47254 7.39467 0.859624 8.14669 1.67598 8.74577C2.36155 9.24887 3.24225 9.57689 4.01747 9.81737C4.97305 10.1127 5.75355 10.37 5.74406 10.9196C5.7399 11.1205 5.6596 11.3124 5.5194 11.4564C5.27998 11.7032 4.91399 11.796 4.40877 11.8055C3.43104 11.8256 2.7075 11.6726 1.56102 10.9923L0.496799 13.1018C1.68687 13.7772 3.0309 14.1347 4.39928 14.1396H4.57859C5.78836 14.1185 6.76398 13.7726 7.54447 13.145C7.58666 13.1113 7.62885 13.0733 7.66998 13.0396L7.3156 13.9635H10.4439L10.9713 12.3666C12.1526 12.7487 13.4236 12.7539 14.608 12.3814L15.1142 13.9635H20.217V10.6538H21.3308C24.0203 10.6538 25.614 9.28263 25.614 6.98649C25.6109 4.42878 24.0636 3.25487 20.7707 3.25487ZM12.8086 10.2656C12.4318 10.2674 12.0577 10.2014 11.7043 10.0705L12.797 6.62577H12.8149L13.8855 10.0811C13.5398 10.2039 13.1755 10.2664 12.8086 10.2656V10.2656ZM20.9732 8.28486H20.2138V5.50882H20.9732C21.9858 5.50882 22.7916 5.84422 22.7916 6.87996C22.7916 7.9484 21.9858 8.2838 20.9732 8.2838" fill="white"/>
<path d="M21.9215 16.1911C21.9264 16.0121 21.984 15.8386 22.087 15.6921C22.1901 15.5457 22.3339 15.4328 22.5007 15.3677C22.6675 15.3025 22.8498 15.2879 23.0248 15.3257C23.1998 15.3635 23.3598 15.452 23.4848 15.5802C23.6098 15.7084 23.6943 15.8705 23.7277 16.0465C23.7611 16.2224 23.7419 16.4042 23.6726 16.5693C23.6032 16.7344 23.4868 16.8754 23.3378 16.9747C23.1888 17.074 23.0139 17.1272 22.8349 17.1277C22.7128 17.1283 22.5918 17.1044 22.4792 17.0572C22.3665 17.0101 22.2646 16.9407 22.1793 16.8533C22.0941 16.7659 22.0273 16.6622 21.983 16.5485C21.9387 16.4347 21.9178 16.3132 21.9215 16.1911ZM22.8349 17.3165C23.0562 17.3132 23.2716 17.2445 23.454 17.1192C23.6365 16.9939 23.7778 16.8174 23.8603 16.612C23.9428 16.4066 23.9628 16.1814 23.9177 15.9647C23.8727 15.748 23.7646 15.5494 23.6071 15.3939C23.4495 15.2384 23.2496 15.1329 23.0323 15.0907C22.815 15.0485 22.5901 15.0714 22.3858 15.1565C22.1815 15.2417 22.0069 15.3854 21.8839 15.5694C21.761 15.7535 21.6951 15.9698 21.6947 16.1911C21.6941 16.3403 21.7233 16.4881 21.7806 16.6259C21.8379 16.7637 21.9221 16.8886 22.0283 16.9934C22.1344 17.0982 22.2605 17.1808 22.399 17.2363C22.5375 17.2918 22.6857 17.319 22.8349 17.3165V17.3165ZM22.5975 16.2839H22.8233L23.1639 16.845H23.3844L23.0152 16.2744C23.2051 16.2523 23.3517 16.151 23.3517 15.919C23.3517 15.6638 23.1998 15.5509 22.895 15.5509H22.4014V16.845H22.5975V16.2839ZM22.5975 16.1173V15.7175H22.8654C22.9994 15.7175 23.1449 15.746 23.1449 15.9074C23.1449 16.1067 22.9973 16.1183 22.8285 16.1183L22.5975 16.1173Z" fill="#225FBC"/>
<defs>
<linearGradient id="paint0_linear_1108_2278" x1="17.5" y1="17.3386" x2="17.5" y2="0.0253138" gradientUnits="userSpaceOnUse">
<stop stop-color="#225FBC"/>
<stop offset="1" stop-color="#1FB2F0"/>
</linearGradient>
</defs>
</svg>
